<svg width="1505" height="639" xmlns="http://www.w3.org/2000/svg" fill="none">

 <g>
  <title>Layer 1</title>
  <g id="svg_4">
   <path id="svg_1" fill="#000000" d="m252.345,143.517c-26,4.5 -48.4,22 -58.5,45.5c-6.3,14.7 -6.6,15.9 -6.5,34c0,15.6 0.1,16.9 2.8,24.5c5.4,14.9 15,31.9 25.2,44.5c4.9,6.1 5.7,6.6 13.1,9c10.2,3.3 29.6,12.8 45.7,22.4c16.4,9.8 36.6,19.9 44.7,22.5c3.5,1 10.5,2.8 15.4,4c11,2.5 24.8,5.7 33.5,7.8c9.3,2.2 21.9,6.3 26.2,8.4l3.8,1.9l5.2,-3.7c12,-8.5 34.6,-27.1 44.5,-36.6c29.6,-28.6 51.8,-65.9 56.4,-95.2c1.9,-11.5 0.1,-28 -4,-38c-5.3,-12.6 -11.4,-21.8 -20.5,-30.2c-12,-11.2 -23.7,-17.7 -38,-20.8c-15.6,-3.5 -40.5,-0.7 -53.4,5.9c-12.3,6.3 -26.4,18.7 -36.5,31.8c-2.9,3.8 -5.6,6.8 -6.2,6.8c-0.6,0 -2.6,-1.9 -4.5,-4.3c-9.2,-11.3 -14.1,-16 -24.5,-24.2c-9,-7.1 -17.5,-11.8 -26.5,-14.6c-8.5,-2.7 -26.5,-3.4 -37.4,-1.4zm24.3,19.1c9.6,2.4 14.1,4.9 14.1,7.8c0,2.6 -1,2.9 -14.2,5.1c-5.3,0.8 -16.8,6.8 -20.5,10.7c-1.7,1.8 -6.7,8 -11,13.8c-4.7,6.3 -8.9,10.8 -10.4,11.4c-6.6,2.3 -11.8,-2.8 -12.6,-12.5c-1.1,-11.6 6.9,-25.5 18.7,-32.2c9.7,-5.6 23.6,-7.1 35.9,-4.1z"/>
   <path id="svg_2" fill="#000000" d="m539.245,297.917c-3.8,1.5 -10.5,4.9 -14.8,7.4c-4.3,2.6 -8,4.7 -8.2,4.7c-0.1,0 -1.7,-1.3 -3.5,-3c-5.2,-4.8 -15.2,-6.5 -21,-3.5c-1.6,0.8 -8.7,7.9 -15.8,15.7c-17.4,19.2 -28.3,29.5 -47.6,45.1c-4.8,4 -10.6,8.8 -12.8,10.7l-3.9,3.5l2.8,6.3c2,4.5 3.5,6.4 5.1,6.9c2,0.5 2.1,0.7 0.8,2.2c-0.9,1 -1.4,3.7 -1.3,7.6c0,4.8 -0.6,7.4 -3.1,12.6c-5.9,12.3 -13.9,19 -26.8,22.3c-22.5,5.8 -74.7,-5.1 -108.6,-22.6c-12.5,-6.5 -22.6,-13.3 -21.5,-14.5c0.3,-0.2 4.3,0.7 8.8,2.1c8.7,2.6 37.4,9.8 53.9,13.4c37,8.3 59,10.1 68.3,5.7c12.6,-5.9 16.7,-23 8,-33c-6.5,-7.5 -23.8,-13.7 -54.8,-19.9c-15.8,-3.1 -17.9,-3.7 -32.5,-8.8c-13.7,-4.8 -15.9,-5.9 -31.5,-15.3c-23.4,-14.1 -31.3,-18.2 -45.5,-24.1c-13.9,-5.6 -18.1,-6.9 -28.5,-8.5c-17.1,-2.5 -33.2,-1 -47.6,4.4c-7.7,2.9 -25.2,11.5 -36.9,18.1c-4.7,2.7 -14.8,8.2 -22.5,12.3c-31.6,16.8 -32.5,17.4 -32.5,20.1c0,9.8 18.6,50 30.8,66.5c12.3,16.5 34.9,38.7 39.5,38.7c0.9,0 5.7,-2.5 10.8,-5.6c28.9,-17.6 47.5,-17.6 94.4,0.4c34.5,13.2 42.3,16.1 46.5,17.2c2.5,0.7 8,2.3 12.3,3.6c11.3,3.4 28.2,7.1 38.4,8.4c4.8,0.6 11,1.5 13.6,2c6.3,1.3 14.3,1.3 26.8,-0.1c11.1,-1.2 20.4,-4.4 34.5,-11.9c4.3,-2.4 13.2,-7 19.8,-10.2c37.6,-18.9 62.4,-32.7 73.6,-41.1c22.9,-17.2 46.9,-36.8 67,-54.7c14.4,-12.9 36,-34 41.1,-40.3l3.8,-4.8l-2,-3.7c-1.1,-2 -3.6,-5.2 -5.6,-7c-11.9,-10.6 -38.1,-7.1 -61,8.2c-7,4.7 -8.5,5.8 -33.2,23.4c-17,12 -21.7,14.5 -41.1,21.3c-33.8,11.8 -50.1,16.3 -46,12.6c0.8,-0.7 4,-2.1 7,-3.2c3,-1 6.7,-2.7 8.2,-3.7c1.5,-1.1 9.6,-5.5 18,-9.9c21.5,-11.3 33.3,-18.5 48.3,-29.4c30.1,-21.8 43.9,-30.3 55.2,-34c2.9,-0.9 5.5,-2 5.8,-2.5c0.9,-1.5 -4.8,-7.2 -9,-9.1c-6.2,-2.8 -15.4,-2.5 -24,1z"/>
   <path id="svg_3" fill="#000000" d="m773.104,418l0,-61.542l-34.453,0l0,61.542l-61.016,0l0,-176.21l61.016,0l0,64.961l34.453,0l0,-64.961l61.016,0l0,176.21l-61.016,0zm134.465,-49.181c0.175,6.137 4.12,9.205 11.835,9.205c17.533,0 35.071,-0.526 52.601,-1.578l10.26,-0.789l1.31,38.135c-23.32,5.085 -46.55,7.627 -69.694,7.627c-22.969,0 -39.625,-5.26 -49.97,-15.78c-10.169,-10.695 -15.254,-27.878 -15.254,-51.548c0,-23.845 5.523,-41.817 16.569,-53.915c11.046,-12.273 28.229,-18.41 51.548,-18.41c23.491,0 40.941,4.997 52.341,14.991c11.39,9.994 17.09,25.336 17.09,46.025l-2.63,26.037l-76.006,0zm19.725,-32.086c0,-5.085 -0.789,-8.679 -2.367,-10.783c-1.403,-2.104 -3.945,-3.156 -7.627,-3.156c-3.682,0 -6.224,1.052 -7.627,3.156c-1.403,2.104 -2.192,5.698 -2.367,10.783l19.988,0zm72.521,81.267l0,-181.47l58.92,0l0,181.47l-58.92,0zm162.61,-136.234c18.58,0 31.91,5.961 39.98,17.884c8.06,11.923 12.09,29.719 12.09,53.389c0,23.495 -4.47,40.765 -13.41,51.811c-8.77,11.046 -23.58,16.569 -44.45,16.569c-4.2,0 -10.17,-0.877 -17.88,-2.63l-3.68,-0.789l0,51.285l-58.91,0l0,-184.1l58.12,0l0.52,6.838c8.6,-6.838 17.8,-10.257 27.62,-10.257zm-18.94,92.05c7.72,0 11.58,-7.715 11.58,-23.144c0,-8.241 -0.88,-13.851 -2.63,-16.832c-1.76,-2.981 -4.74,-4.471 -8.95,-4.471l-8.41,1.841l0,41.817c2.28,0.526 5.08,0.789 8.41,0.789zm85.3,44.184l0,-132.815l58.91,0l0,132.815l-58.91,0zm-0.27,-141.231l0,-40.239l59.44,0l0,40.239l-59.44,0zm132.1,92.05c0.18,6.137 4.12,9.205 11.84,9.205c17.53,0 35.06,-0.526 52.6,-1.578l10.25,-0.789l1.32,38.135c-23.32,5.085 -46.55,7.627 -69.7,7.627c-22.96,0 -39.62,-5.26 -49.97,-15.78c-10.17,-10.695 -15.25,-27.878 -15.25,-51.548c0,-23.845 5.52,-41.817 16.57,-53.915c11.05,-12.273 28.23,-18.41 51.55,-18.41c23.49,0 40.94,4.997 52.33,14.991c11.4,9.994 17.1,25.336 17.1,46.025l-2.63,26.037l-76.01,0zm19.73,-32.086c0,-5.085 -0.79,-8.679 -2.37,-10.783c-1.4,-2.104 -3.94,-3.156 -7.63,-3.156c-3.68,0 -6.22,1.052 -7.62,3.156c-1.41,2.104 -2.2,5.698 -2.37,10.783l19.99,0z"/>
  </g>
 </g>
</svg>