<svg width="1505" height="639" viewBox="0 0 1505 639" fill="none" xmlns="http://www.w3.org/2000/svg">
<path d="M313.6 143.517C287.6 148.017 265.2 165.517 255.1 189.017C248.8 203.717 248.5 204.917 248.6 223.017C248.6 238.617 248.7 239.917 251.4 247.517C256.8 262.417 266.4 279.417 276.6 292.017C281.5 298.117 282.3 298.617 289.7 301.017C299.9 304.317 319.3 313.817 335.4 323.417C351.8 333.217 372 343.317 380.1 345.917C383.6 346.917 390.6 348.717 395.5 349.917C406.5 352.417 420.3 355.617 429 357.717C438.3 359.917 450.9 364.017 455.2 366.117L459 368.017L464.2 364.317C476.2 355.817 498.8 337.217 508.7 327.717C538.3 299.117 560.5 261.817 565.1 232.517C567 221.017 565.2 204.517 561.1 194.517C555.8 181.917 549.7 172.717 540.6 164.317C528.6 153.117 516.9 146.617 502.6 143.517C487 140.017 462.1 142.817 449.2 149.417C436.9 155.717 422.8 168.117 412.7 181.217C409.8 185.017 407.1 188.017 406.5 188.017C405.9 188.017 403.9 186.117 402 183.717C392.8 172.417 387.9 167.717 377.5 159.517C368.5 152.417 360 147.717 351 144.917C342.5 142.217 324.5 141.517 313.6 143.517ZM337.9 162.617C347.5 165.017 352 167.517 352 170.417C352 173.017 351 173.317 337.8 175.517C332.5 176.317 321 182.317 317.3 186.217C315.6 188.017 310.6 194.217 306.3 200.017C301.6 206.317 297.4 210.817 295.9 211.417C289.3 213.717 284.1 208.617 283.3 198.917C282.2 187.317 290.2 173.417 302 166.717C311.7 161.117 325.6 159.617 337.9 162.617Z" fill="#119635"/>
<path d="M600.5 297.917C596.7 299.417 590 302.817 585.7 305.317C581.4 307.917 577.7 310.017 577.5 310.017C577.4 310.017 575.8 308.717 574 307.017C568.8 302.217 558.8 300.517 553 303.517C551.4 304.317 544.3 311.417 537.2 319.217C519.8 338.417 508.9 348.717 489.6 364.317C484.8 368.317 479 373.117 476.8 375.017L472.9 378.517L475.7 384.817C477.7 389.317 479.2 391.217 480.8 391.717C482.8 392.217 482.9 392.417 481.6 393.917C480.7 394.917 480.2 397.617 480.3 401.517C480.3 406.317 479.7 408.917 477.2 414.117C471.3 426.417 463.3 433.117 450.4 436.417C427.9 442.217 375.7 431.317 341.8 413.817C329.3 407.317 319.2 400.517 320.3 399.317C320.6 399.117 324.6 400.017 329.1 401.417C337.8 404.017 366.5 411.217 383 414.817C420 423.117 442 424.917 451.3 420.517C463.9 414.617 468 397.517 459.3 387.517C452.8 380.017 435.5 373.817 404.5 367.617C388.7 364.517 386.6 363.917 372 358.817C358.3 354.017 356.1 352.917 340.5 343.517C317.1 329.417 309.2 325.317 295 319.417C281.1 313.817 276.9 312.517 266.5 310.917C249.4 308.417 233.3 309.917 218.9 315.317C211.2 318.217 193.7 326.817 182 333.417C177.3 336.117 167.2 341.617 159.5 345.717C127.9 362.517 127 363.117 127 365.817C127 375.617 145.6 415.817 157.8 432.317C170.1 448.817 192.7 471.017 197.3 471.017C198.2 471.017 203 468.517 208.1 465.417C237 447.817 255.6 447.817 302.5 465.817C337 479.017 344.8 481.917 349 483.017C351.5 483.717 357 485.317 361.3 486.617C372.6 490.017 389.5 493.717 399.7 495.017C404.5 495.617 410.7 496.517 413.3 497.017C419.6 498.317 427.6 498.317 440.1 496.917C451.2 495.717 460.5 492.517 474.6 485.017C478.9 482.617 487.8 478.017 494.4 474.817C532 455.917 556.8 442.117 568 433.717C590.9 416.517 614.9 396.917 635 379.017C649.4 366.117 671 345.017 676.1 338.717L679.9 333.917L677.9 330.217C676.8 328.217 674.3 325.017 672.3 323.217C660.4 312.617 634.2 316.117 611.3 331.417C604.3 336.117 602.8 337.217 578.1 354.817C561.1 366.817 556.4 369.317 537 376.117C503.2 387.917 486.9 392.417 491 388.717C491.8 388.017 495 386.617 498 385.517C501 384.517 504.7 382.817 506.2 381.817C507.7 380.717 515.8 376.317 524.2 371.917C545.7 360.617 557.5 353.417 572.5 342.517C602.6 320.717 616.4 312.217 627.7 308.517C630.6 307.617 633.2 306.517 633.5 306.017C634.4 304.517 628.7 298.817 624.5 296.917C618.3 294.117 609.1 294.417 600.5 297.917Z" fill="#0A4D1C"/>
<path d="M834.359 418V356.458H799.906V418H738.89V241.79H799.906V306.751H834.359V241.79H895.375V418H834.359ZM968.824 368.819C968.999 374.956 972.944 378.024 980.659 378.024C998.192 378.024 1015.73 377.498 1033.26 376.446L1043.52 375.657L1044.83 413.792C1021.51 418.877 998.28 421.419 975.136 421.419C952.167 421.419 935.511 416.159 925.166 405.639C914.997 394.944 909.912 377.761 909.912 354.091C909.912 330.246 915.435 312.274 926.481 300.176C937.527 287.903 954.71 281.766 978.029 281.766C1001.52 281.766 1018.97 286.763 1030.37 296.757C1041.76 306.751 1047.46 322.093 1047.46 342.782L1044.83 368.819H968.824ZM988.549 336.733C988.549 331.648 987.76 328.054 986.182 325.95C984.779 323.846 982.237 322.794 978.555 322.794C974.873 322.794 972.331 323.846 970.928 325.95C969.525 328.054 968.736 331.648 968.561 336.733H988.549ZM1061.07 418V236.53H1119.99V418H1061.07ZM1223.68 281.766C1242.26 281.766 1255.59 287.727 1263.66 299.65C1271.72 311.573 1275.75 329.369 1275.75 353.039C1275.75 376.534 1271.28 393.804 1262.34 404.85C1253.57 415.896 1238.76 421.419 1217.89 421.419C1213.69 421.419 1207.72 420.542 1200.01 418.789L1196.33 418V469.285H1137.42V285.185H1195.54L1196.06 292.023C1204.66 285.185 1213.86 281.766 1223.68 281.766ZM1204.74 373.816C1212.46 373.816 1216.32 366.101 1216.32 350.672C1216.32 342.431 1215.44 336.821 1213.69 333.84C1211.93 330.859 1208.95 329.369 1204.74 329.369L1196.33 331.21V373.027C1198.61 373.553 1201.41 373.816 1204.74 373.816ZM1290.04 418V285.185H1348.95V418H1290.04ZM1289.77 276.769V236.53H1349.21V276.769H1289.77ZM1421.87 368.819C1422.05 374.956 1425.99 378.024 1433.71 378.024C1451.24 378.024 1468.77 377.498 1486.31 376.446L1496.56 375.657L1497.88 413.792C1474.56 418.877 1451.33 421.419 1428.18 421.419C1405.22 421.419 1388.56 416.159 1378.21 405.639C1368.04 394.944 1362.96 377.761 1362.96 354.091C1362.96 330.246 1368.48 312.274 1379.53 300.176C1390.58 287.903 1407.76 281.766 1431.08 281.766C1454.57 281.766 1472.02 286.763 1483.41 296.757C1494.81 306.751 1500.51 322.093 1500.51 342.782L1497.88 368.819H1421.87ZM1441.6 336.733C1441.6 331.648 1440.81 328.054 1439.23 325.95C1437.83 323.846 1435.29 322.794 1431.6 322.794C1427.92 322.794 1425.38 323.846 1423.98 325.95C1422.57 328.054 1421.78 331.648 1421.61 336.733H1441.6Z" fill="#0A4D1C"/>
</svg>
